G75*
G70*
%OFA0B0*%
%FSLAX24Y24*%
%IPPOS*%
%LPD*%
%AMOC8*
5,1,8,0,0,1.08239X$1,22.5*
%
%ADD10C,0.0600*%
%ADD11C,0.0680*%
%ADD12C,0.0730*%
%ADD13R,0.0789X0.0789*%
%ADD14C,0.0789*%
%ADD15C,0.0516*%
%ADD16C,0.1890*%
D10*
X013181Y004591D02*
X013181Y005111D01*
X014181Y005111D02*
X014181Y004591D01*
X014181Y007591D02*
X014181Y008111D01*
X013181Y008111D02*
X013181Y007591D01*
D11*
X011731Y013601D03*
X010731Y013601D03*
X009731Y013601D03*
X006181Y011351D03*
X006181Y010351D03*
X006181Y009351D03*
X004931Y013601D03*
X003931Y013601D03*
D12*
X004931Y007851D03*
X006931Y007851D03*
X007931Y007851D03*
X008931Y007851D03*
X009931Y007851D03*
X010931Y007851D03*
D13*
X001931Y011401D03*
D14*
X000931Y011401D03*
X000931Y010401D03*
X001931Y010401D03*
D15*
X003831Y010851D03*
X007131Y012701D03*
X008931Y010201D03*
X008631Y009551D03*
X009931Y009101D03*
X011431Y010651D03*
X012381Y011501D03*
X011081Y011901D03*
X010281Y011301D03*
X009681Y010951D03*
X010081Y012551D03*
X012381Y009301D03*
X013531Y009201D03*
X013531Y009951D03*
X006431Y006351D03*
D16*
X001431Y001351D03*
X013931Y001351D03*
X013931Y013851D03*
X001431Y013851D03*
M02*
