G75*
G70*
%OFA0B0*%
%FSLAX24Y24*%
%IPPOS*%
%LPD*%
%AMOC8*
5,1,8,0,0,1.08239X$1,22.5*
%
%ADD10C,0.0080*%
%ADD11C,0.0081*%
%ADD12C,0.0081*%
%ADD13C,0.0081*%
%ADD14C,0.0600*%
%ADD15C,0.0084*%
%ADD16C,0.0082*%
%ADD17C,0.0083*%
%ADD18C,0.0680*%
%ADD19C,0.0730*%
%ADD20R,0.0789X0.0789*%
%ADD21C,0.0789*%
%ADD22C,0.0516*%
%ADD23C,0.1890*%
D10*
X007156Y009619D02*
X007156Y009835D01*
X007156Y009619D02*
X006684Y009619D01*
X006684Y009835D01*
X007156Y009835D01*
X007156Y009698D02*
X006684Y009698D01*
X006684Y009777D02*
X007156Y009777D01*
X007156Y010367D02*
X007156Y010583D01*
X007156Y010367D02*
X006684Y010367D01*
X006684Y010583D01*
X007156Y010583D01*
X007156Y010446D02*
X006684Y010446D01*
X006684Y010525D02*
X007156Y010525D01*
X008179Y010583D02*
X008179Y010367D01*
X007707Y010367D01*
X007707Y010583D01*
X008179Y010583D01*
X008179Y010446D02*
X007707Y010446D01*
X007707Y010525D02*
X008179Y010525D01*
X008179Y010209D02*
X008179Y009993D01*
X007707Y009993D01*
X007707Y010209D01*
X008179Y010209D01*
X008179Y010072D02*
X007707Y010072D01*
X007707Y010151D02*
X008179Y010151D01*
X008179Y009835D02*
X008179Y009619D01*
X007707Y009619D01*
X007707Y009835D01*
X008179Y009835D01*
X008179Y009698D02*
X007707Y009698D01*
X007707Y009777D02*
X008179Y009777D01*
D11*
X009233Y009896D02*
X009233Y009542D01*
X009095Y009542D01*
X009095Y009896D01*
X009233Y009896D01*
X009233Y009622D02*
X009095Y009622D01*
X009095Y009702D02*
X009233Y009702D01*
X009233Y009782D02*
X009095Y009782D01*
X009095Y009862D02*
X009233Y009862D01*
X009489Y009896D02*
X009489Y009542D01*
X009351Y009542D01*
X009351Y009896D01*
X009489Y009896D01*
X009489Y009622D02*
X009351Y009622D01*
X009351Y009702D02*
X009489Y009702D01*
X009489Y009782D02*
X009351Y009782D01*
X009351Y009862D02*
X009489Y009862D01*
X009745Y009896D02*
X009745Y009542D01*
X009607Y009542D01*
X009607Y009896D01*
X009745Y009896D01*
X009745Y009622D02*
X009607Y009622D01*
X009607Y009702D02*
X009745Y009702D01*
X009745Y009782D02*
X009607Y009782D01*
X009607Y009862D02*
X009745Y009862D01*
X010000Y009896D02*
X010000Y009542D01*
X009862Y009542D01*
X009862Y009896D01*
X010000Y009896D01*
X010000Y009622D02*
X009862Y009622D01*
X009862Y009702D02*
X010000Y009702D01*
X010000Y009782D02*
X009862Y009782D01*
X009862Y009862D02*
X010000Y009862D01*
X010256Y009896D02*
X010256Y009542D01*
X010118Y009542D01*
X010118Y009896D01*
X010256Y009896D01*
X010256Y009622D02*
X010118Y009622D01*
X010118Y009702D02*
X010256Y009702D01*
X010256Y009782D02*
X010118Y009782D01*
X010118Y009862D02*
X010256Y009862D01*
X010512Y009896D02*
X010512Y009542D01*
X010374Y009542D01*
X010374Y009896D01*
X010512Y009896D01*
X010512Y009622D02*
X010374Y009622D01*
X010374Y009702D02*
X010512Y009702D01*
X010512Y009782D02*
X010374Y009782D01*
X010374Y009862D02*
X010512Y009862D01*
X010768Y009896D02*
X010768Y009542D01*
X010630Y009542D01*
X010630Y009896D01*
X010768Y009896D01*
X010768Y009622D02*
X010630Y009622D01*
X010630Y009702D02*
X010768Y009702D01*
X010768Y009782D02*
X010630Y009782D01*
X010630Y009862D02*
X010768Y009862D01*
X010768Y011786D02*
X010768Y012140D01*
X010768Y011786D02*
X010630Y011786D01*
X010630Y012140D01*
X010768Y012140D01*
X010768Y011866D02*
X010630Y011866D01*
X010630Y011946D02*
X010768Y011946D01*
X010768Y012026D02*
X010630Y012026D01*
X010630Y012106D02*
X010768Y012106D01*
X010512Y012140D02*
X010512Y011786D01*
X010374Y011786D01*
X010374Y012140D01*
X010512Y012140D01*
X010512Y011866D02*
X010374Y011866D01*
X010374Y011946D02*
X010512Y011946D01*
X010512Y012026D02*
X010374Y012026D01*
X010374Y012106D02*
X010512Y012106D01*
X010256Y012140D02*
X010256Y011786D01*
X010118Y011786D01*
X010118Y012140D01*
X010256Y012140D01*
X010256Y011866D02*
X010118Y011866D01*
X010118Y011946D02*
X010256Y011946D01*
X010256Y012026D02*
X010118Y012026D01*
X010118Y012106D02*
X010256Y012106D01*
X010000Y012140D02*
X010000Y011786D01*
X009862Y011786D01*
X009862Y012140D01*
X010000Y012140D01*
X010000Y011866D02*
X009862Y011866D01*
X009862Y011946D02*
X010000Y011946D01*
X010000Y012026D02*
X009862Y012026D01*
X009862Y012106D02*
X010000Y012106D01*
X009745Y012140D02*
X009745Y011786D01*
X009607Y011786D01*
X009607Y012140D01*
X009745Y012140D01*
X009745Y011866D02*
X009607Y011866D01*
X009607Y011946D02*
X009745Y011946D01*
X009745Y012026D02*
X009607Y012026D01*
X009607Y012106D02*
X009745Y012106D01*
X009489Y012140D02*
X009489Y011786D01*
X009351Y011786D01*
X009351Y012140D01*
X009489Y012140D01*
X009489Y011866D02*
X009351Y011866D01*
X009351Y011946D02*
X009489Y011946D01*
X009489Y012026D02*
X009351Y012026D01*
X009351Y012106D02*
X009489Y012106D01*
X009233Y012140D02*
X009233Y011786D01*
X009095Y011786D01*
X009095Y012140D01*
X009233Y012140D01*
X009233Y011866D02*
X009095Y011866D01*
X009095Y011946D02*
X009233Y011946D01*
X009233Y012026D02*
X009095Y012026D01*
X009095Y012106D02*
X009233Y012106D01*
D12*
X005128Y010435D02*
X005128Y010279D01*
X005128Y010435D02*
X005404Y010435D01*
X005404Y010279D01*
X005128Y010279D01*
X005128Y010359D02*
X005404Y010359D01*
X005128Y009923D02*
X005128Y009767D01*
X005128Y009923D02*
X005404Y009923D01*
X005404Y009767D01*
X005128Y009767D01*
X005128Y009847D02*
X005404Y009847D01*
X004459Y009767D02*
X004459Y009923D01*
X004735Y009923D01*
X004735Y009767D01*
X004459Y009767D01*
X004459Y009847D02*
X004735Y009847D01*
X004459Y010023D02*
X004459Y010179D01*
X004735Y010179D01*
X004735Y010023D01*
X004459Y010023D01*
X004459Y010103D02*
X004735Y010103D01*
X004459Y010279D02*
X004459Y010435D01*
X004735Y010435D01*
X004735Y010279D01*
X004459Y010279D01*
X004459Y010359D02*
X004735Y010359D01*
D13*
X007984Y013154D02*
X007984Y013548D01*
X007984Y013154D02*
X007434Y013154D01*
X007434Y013548D01*
X007984Y013548D01*
X007984Y013234D02*
X007434Y013234D01*
X007434Y013314D02*
X007984Y013314D01*
X007984Y013394D02*
X007434Y013394D01*
X007434Y013474D02*
X007984Y013474D01*
X008929Y013528D02*
X008929Y013922D01*
X008929Y013528D02*
X008379Y013528D01*
X008379Y013922D01*
X008929Y013922D01*
X008929Y013608D02*
X008379Y013608D01*
X008379Y013688D02*
X008929Y013688D01*
X008929Y013768D02*
X008379Y013768D01*
X008379Y013848D02*
X008929Y013848D01*
X008929Y013174D02*
X008929Y012780D01*
X008379Y012780D01*
X008379Y013174D01*
X008929Y013174D01*
X008929Y012860D02*
X008379Y012860D01*
X008379Y012940D02*
X008929Y012940D01*
X008929Y013020D02*
X008379Y013020D01*
X008379Y013100D02*
X008929Y013100D01*
D14*
X013181Y008111D02*
X013181Y007591D01*
X014181Y007591D02*
X014181Y008111D01*
X014181Y005111D02*
X014181Y004591D01*
X013181Y004591D02*
X013181Y005111D01*
D15*
X002359Y005628D02*
X002359Y007324D01*
X002359Y005628D02*
X001603Y005628D01*
X001603Y007324D01*
X002359Y007324D01*
X002359Y005711D02*
X001603Y005711D01*
X001603Y005794D02*
X002359Y005794D01*
X002359Y005877D02*
X001603Y005877D01*
X001603Y005960D02*
X002359Y005960D01*
X002359Y006043D02*
X001603Y006043D01*
X001603Y006126D02*
X002359Y006126D01*
X002359Y006209D02*
X001603Y006209D01*
X001603Y006292D02*
X002359Y006292D01*
X002359Y006375D02*
X001603Y006375D01*
X001603Y006458D02*
X002359Y006458D01*
X002359Y006541D02*
X001603Y006541D01*
X001603Y006624D02*
X002359Y006624D01*
X002359Y006707D02*
X001603Y006707D01*
X001603Y006790D02*
X002359Y006790D01*
X002359Y006873D02*
X001603Y006873D01*
X001603Y006956D02*
X002359Y006956D01*
X002359Y007039D02*
X001603Y007039D01*
X001603Y007122D02*
X002359Y007122D01*
X002359Y007205D02*
X001603Y007205D01*
X001603Y007288D02*
X002359Y007288D01*
X002359Y004574D02*
X002359Y002878D01*
X001603Y002878D01*
X001603Y004574D01*
X002359Y004574D01*
X002359Y002961D02*
X001603Y002961D01*
X001603Y003044D02*
X002359Y003044D01*
X002359Y003127D02*
X001603Y003127D01*
X001603Y003210D02*
X002359Y003210D01*
X002359Y003293D02*
X001603Y003293D01*
X001603Y003376D02*
X002359Y003376D01*
X002359Y003459D02*
X001603Y003459D01*
X001603Y003542D02*
X002359Y003542D01*
X002359Y003625D02*
X001603Y003625D01*
X001603Y003708D02*
X002359Y003708D01*
X002359Y003791D02*
X001603Y003791D01*
X001603Y003874D02*
X002359Y003874D01*
X002359Y003957D02*
X001603Y003957D01*
X001603Y004040D02*
X002359Y004040D01*
X002359Y004123D02*
X001603Y004123D01*
X001603Y004206D02*
X002359Y004206D01*
X002359Y004289D02*
X001603Y004289D01*
X001603Y004372D02*
X002359Y004372D01*
X002359Y004455D02*
X001603Y004455D01*
X001603Y004538D02*
X002359Y004538D01*
D16*
X002335Y007830D02*
X003277Y007830D01*
X002335Y007830D02*
X002335Y008772D01*
X003277Y008772D01*
X003277Y007830D01*
X003277Y007911D02*
X002335Y007911D01*
X002335Y007992D02*
X003277Y007992D01*
X003277Y008073D02*
X002335Y008073D01*
X002335Y008154D02*
X003277Y008154D01*
X003277Y008235D02*
X002335Y008235D01*
X002335Y008316D02*
X003277Y008316D01*
X003277Y008397D02*
X002335Y008397D01*
X002335Y008478D02*
X003277Y008478D01*
X003277Y008559D02*
X002335Y008559D01*
X002335Y008640D02*
X003277Y008640D01*
X003277Y008721D02*
X002335Y008721D01*
X001527Y007830D02*
X000585Y007830D01*
X000585Y008772D01*
X001527Y008772D01*
X001527Y007830D01*
X001527Y007911D02*
X000585Y007911D01*
X000585Y007992D02*
X001527Y007992D01*
X001527Y008073D02*
X000585Y008073D01*
X000585Y008154D02*
X001527Y008154D01*
X001527Y008235D02*
X000585Y008235D01*
X000585Y008316D02*
X001527Y008316D01*
X001527Y008397D02*
X000585Y008397D01*
X000585Y008478D02*
X001527Y008478D01*
X001527Y008559D02*
X000585Y008559D01*
X000585Y008640D02*
X001527Y008640D01*
X001527Y008721D02*
X000585Y008721D01*
D17*
X004166Y009340D02*
X004166Y009652D01*
X004166Y009340D02*
X003696Y009340D01*
X003696Y009652D01*
X004166Y009652D01*
X004166Y009422D02*
X003696Y009422D01*
X003696Y009504D02*
X004166Y009504D01*
X004166Y009586D02*
X003696Y009586D01*
X004166Y010049D02*
X004166Y010361D01*
X004166Y010049D02*
X003696Y010049D01*
X003696Y010361D01*
X004166Y010361D01*
X004166Y010131D02*
X003696Y010131D01*
X003696Y010213D02*
X004166Y010213D01*
X004166Y010295D02*
X003696Y010295D01*
X004421Y011086D02*
X004733Y011086D01*
X004733Y010616D01*
X004421Y010616D01*
X004421Y011086D01*
X004421Y010698D02*
X004733Y010698D01*
X004733Y010780D02*
X004421Y010780D01*
X004421Y010862D02*
X004733Y010862D01*
X004733Y010944D02*
X004421Y010944D01*
X004421Y011026D02*
X004733Y011026D01*
X005130Y011086D02*
X005442Y011086D01*
X005442Y010616D01*
X005130Y010616D01*
X005130Y011086D01*
X005130Y010698D02*
X005442Y010698D01*
X005442Y010780D02*
X005130Y010780D01*
X005130Y010862D02*
X005442Y010862D01*
X005442Y010944D02*
X005130Y010944D01*
X005130Y011026D02*
X005442Y011026D01*
X005442Y011616D02*
X005130Y011616D01*
X005130Y012086D01*
X005442Y012086D01*
X005442Y011616D01*
X005442Y011698D02*
X005130Y011698D01*
X005130Y011780D02*
X005442Y011780D01*
X005442Y011862D02*
X005130Y011862D01*
X005130Y011944D02*
X005442Y011944D01*
X005442Y012026D02*
X005130Y012026D01*
X004733Y011616D02*
X004421Y011616D01*
X004421Y012086D01*
X004733Y012086D01*
X004733Y011616D01*
X004733Y011698D02*
X004421Y011698D01*
X004421Y011780D02*
X004733Y011780D01*
X004733Y011862D02*
X004421Y011862D01*
X004421Y011944D02*
X004733Y011944D01*
X004733Y012026D02*
X004421Y012026D01*
X006971Y011586D02*
X007283Y011586D01*
X007283Y011116D01*
X006971Y011116D01*
X006971Y011586D01*
X006971Y011198D02*
X007283Y011198D01*
X007283Y011280D02*
X006971Y011280D01*
X006971Y011362D02*
X007283Y011362D01*
X007283Y011444D02*
X006971Y011444D01*
X006971Y011526D02*
X007283Y011526D01*
X007680Y011586D02*
X007992Y011586D01*
X007992Y011116D01*
X007680Y011116D01*
X007680Y011586D01*
X007680Y011198D02*
X007992Y011198D01*
X007992Y011280D02*
X007680Y011280D01*
X007680Y011362D02*
X007992Y011362D01*
X007992Y011444D02*
X007680Y011444D01*
X007680Y011526D02*
X007992Y011526D01*
X007983Y012536D02*
X007671Y012536D01*
X007983Y012536D02*
X007983Y012066D01*
X007671Y012066D01*
X007671Y012536D01*
X007671Y012148D02*
X007983Y012148D01*
X007983Y012230D02*
X007671Y012230D01*
X007671Y012312D02*
X007983Y012312D01*
X007983Y012394D02*
X007671Y012394D01*
X007671Y012476D02*
X007983Y012476D01*
X008380Y012536D02*
X008692Y012536D01*
X008692Y012066D01*
X008380Y012066D01*
X008380Y012536D01*
X008380Y012148D02*
X008692Y012148D01*
X008692Y012230D02*
X008380Y012230D01*
X008380Y012312D02*
X008692Y012312D01*
X008692Y012394D02*
X008380Y012394D01*
X008380Y012476D02*
X008692Y012476D01*
X010471Y012366D02*
X010783Y012366D01*
X010471Y012366D02*
X010471Y012836D01*
X010783Y012836D01*
X010783Y012366D01*
X010783Y012448D02*
X010471Y012448D01*
X010471Y012530D02*
X010783Y012530D01*
X010783Y012612D02*
X010471Y012612D01*
X010471Y012694D02*
X010783Y012694D01*
X010783Y012776D02*
X010471Y012776D01*
X011180Y012366D02*
X011492Y012366D01*
X011180Y012366D02*
X011180Y012836D01*
X011492Y012836D01*
X011492Y012366D01*
X011492Y012448D02*
X011180Y012448D01*
X011180Y012530D02*
X011492Y012530D01*
X011492Y012612D02*
X011180Y012612D01*
X011180Y012694D02*
X011492Y012694D01*
X011492Y012776D02*
X011180Y012776D01*
X011671Y012836D02*
X011983Y012836D01*
X011983Y012366D01*
X011671Y012366D01*
X011671Y012836D01*
X011671Y012448D02*
X011983Y012448D01*
X011983Y012530D02*
X011671Y012530D01*
X011671Y012612D02*
X011983Y012612D01*
X011983Y012694D02*
X011671Y012694D01*
X011671Y012776D02*
X011983Y012776D01*
X012380Y012836D02*
X012692Y012836D01*
X012692Y012366D01*
X012380Y012366D01*
X012380Y012836D01*
X012380Y012448D02*
X012692Y012448D01*
X012692Y012530D02*
X012380Y012530D01*
X012380Y012612D02*
X012692Y012612D01*
X012692Y012694D02*
X012380Y012694D01*
X012380Y012776D02*
X012692Y012776D01*
X012696Y011361D02*
X012696Y011049D01*
X012696Y011361D02*
X013166Y011361D01*
X013166Y011049D01*
X012696Y011049D01*
X012696Y011131D02*
X013166Y011131D01*
X013166Y011213D02*
X012696Y011213D01*
X012696Y011295D02*
X013166Y011295D01*
X012696Y010652D02*
X012696Y010340D01*
X012696Y010652D02*
X013166Y010652D01*
X013166Y010340D01*
X012696Y010340D01*
X012696Y010422D02*
X013166Y010422D01*
X013166Y010504D02*
X012696Y010504D01*
X012696Y010586D02*
X013166Y010586D01*
X012696Y010111D02*
X012696Y009799D01*
X012696Y010111D02*
X013166Y010111D01*
X013166Y009799D01*
X012696Y009799D01*
X012696Y009881D02*
X013166Y009881D01*
X013166Y009963D02*
X012696Y009963D01*
X012696Y010045D02*
X013166Y010045D01*
X012696Y009402D02*
X012696Y009090D01*
X012696Y009402D02*
X013166Y009402D01*
X013166Y009090D01*
X012696Y009090D01*
X012696Y009172D02*
X013166Y009172D01*
X013166Y009254D02*
X012696Y009254D01*
X012696Y009336D02*
X013166Y009336D01*
X013946Y009402D02*
X013946Y009090D01*
X013946Y009402D02*
X014416Y009402D01*
X014416Y009090D01*
X013946Y009090D01*
X013946Y009172D02*
X014416Y009172D01*
X014416Y009254D02*
X013946Y009254D01*
X013946Y009336D02*
X014416Y009336D01*
X013946Y009799D02*
X013946Y010111D01*
X014416Y010111D01*
X014416Y009799D01*
X013946Y009799D01*
X013946Y009881D02*
X014416Y009881D01*
X014416Y009963D02*
X013946Y009963D01*
X013946Y010045D02*
X014416Y010045D01*
X013946Y010340D02*
X013946Y010652D01*
X014416Y010652D01*
X014416Y010340D01*
X013946Y010340D01*
X013946Y010422D02*
X014416Y010422D01*
X014416Y010504D02*
X013946Y010504D01*
X013946Y010586D02*
X014416Y010586D01*
X013946Y011049D02*
X013946Y011361D01*
X014416Y011361D01*
X014416Y011049D01*
X013946Y011049D01*
X013946Y011131D02*
X014416Y011131D01*
X014416Y011213D02*
X013946Y011213D01*
X013946Y011295D02*
X014416Y011295D01*
X011666Y010311D02*
X011666Y009999D01*
X011196Y009999D01*
X011196Y010311D01*
X011666Y010311D01*
X011666Y010081D02*
X011196Y010081D01*
X011196Y010163D02*
X011666Y010163D01*
X011666Y010245D02*
X011196Y010245D01*
X011666Y009602D02*
X011666Y009290D01*
X011196Y009290D01*
X011196Y009602D01*
X011666Y009602D01*
X011666Y009372D02*
X011196Y009372D01*
X011196Y009454D02*
X011666Y009454D01*
X011666Y009536D02*
X011196Y009536D01*
D18*
X010731Y013601D03*
X011731Y013601D03*
X009731Y013601D03*
X006181Y011351D03*
X006181Y010351D03*
X006181Y009351D03*
X004931Y013601D03*
X003931Y013601D03*
D19*
X004931Y007851D03*
X006931Y007851D03*
X007931Y007851D03*
X008931Y007851D03*
X009931Y007851D03*
X010931Y007851D03*
D20*
X001931Y011401D03*
D21*
X000931Y011401D03*
X000931Y010401D03*
X001931Y010401D03*
D22*
X003831Y010851D03*
X007131Y012701D03*
X008931Y010201D03*
X008631Y009551D03*
X009931Y009101D03*
X011431Y010651D03*
X012381Y011501D03*
X011081Y011901D03*
X010281Y011301D03*
X009681Y010951D03*
X010081Y012551D03*
X012381Y009301D03*
X013531Y009201D03*
X013531Y009951D03*
X006431Y006351D03*
D23*
X001431Y001351D03*
X013931Y001351D03*
X013931Y013851D03*
X001431Y013851D03*
M02*
