%
M48
M72
T01C0.0276
T02C0.0320
T03C0.0400
T04C0.0433
T05C0.0472
T06C0.1410
%
T01
X6431Y6351
X8631Y9551
X8931Y10201
X9681Y10951
X10281Y11301
X11081Y11901
X10081Y12551
X11431Y10651
X12381Y11501
X13531Y9951
X13531Y9201
X12381Y9301
X9931Y9101
X7131Y12701
X3831Y10851
T02
X13181Y7851
X14181Y7851
X14181Y4851
X13181Y4851
T03
X6181Y9351
X6181Y10351
X6181Y11351
X4931Y13601
X3931Y13601
X9731Y13601
X10731Y13601
X11731Y13601
T04
X10931Y7851
X9931Y7851
X8931Y7851
X7931Y7851
X6931Y7851
X4931Y7851
T05
X1931Y10401
X931Y10401
X931Y11401
X1931Y11401
T06
X1431Y1351
X13931Y1351
X13931Y13851
X1431Y13851
M30
