G75*
%MOIN*%
%OFA0B0*%
%FSLAX25Y25*%
%IPPOS*%
%LPD*%
%AMOC8*
5,1,8,0,0,1.08239X$1,22.5*
%
%ADD10C,0.00000*%
%ADD11R,0.03937X0.04331*%
D10*
X0004375Y0001500D02*
X0004375Y0076500D01*
X0044375Y0076500D01*
X0044375Y0001500D01*
X0004375Y0001500D01*
X0018125Y0066500D02*
X0018127Y0066658D01*
X0018133Y0066815D01*
X0018143Y0066973D01*
X0018157Y0067130D01*
X0018175Y0067286D01*
X0018196Y0067443D01*
X0018222Y0067598D01*
X0018252Y0067753D01*
X0018285Y0067907D01*
X0018323Y0068060D01*
X0018364Y0068213D01*
X0018409Y0068364D01*
X0018458Y0068514D01*
X0018511Y0068662D01*
X0018567Y0068810D01*
X0018628Y0068955D01*
X0018691Y0069100D01*
X0018759Y0069242D01*
X0018830Y0069383D01*
X0018904Y0069522D01*
X0018982Y0069659D01*
X0019064Y0069794D01*
X0019148Y0069927D01*
X0019237Y0070058D01*
X0019328Y0070186D01*
X0019423Y0070313D01*
X0019520Y0070436D01*
X0019621Y0070558D01*
X0019725Y0070676D01*
X0019832Y0070792D01*
X0019942Y0070905D01*
X0020054Y0071016D01*
X0020170Y0071123D01*
X0020288Y0071228D01*
X0020408Y0071330D01*
X0020531Y0071428D01*
X0020657Y0071524D01*
X0020785Y0071616D01*
X0020915Y0071705D01*
X0021047Y0071791D01*
X0021182Y0071873D01*
X0021319Y0071952D01*
X0021457Y0072027D01*
X0021597Y0072099D01*
X0021740Y0072167D01*
X0021883Y0072232D01*
X0022029Y0072293D01*
X0022176Y0072350D01*
X0022324Y0072404D01*
X0022474Y0072454D01*
X0022624Y0072500D01*
X0022776Y0072542D01*
X0022929Y0072581D01*
X0023083Y0072615D01*
X0023238Y0072646D01*
X0023393Y0072672D01*
X0023549Y0072695D01*
X0023706Y0072714D01*
X0023863Y0072729D01*
X0024020Y0072740D01*
X0024178Y0072747D01*
X0024336Y0072750D01*
X0024493Y0072749D01*
X0024651Y0072744D01*
X0024808Y0072735D01*
X0024966Y0072722D01*
X0025122Y0072705D01*
X0025279Y0072684D01*
X0025434Y0072660D01*
X0025589Y0072631D01*
X0025744Y0072598D01*
X0025897Y0072562D01*
X0026050Y0072521D01*
X0026201Y0072477D01*
X0026351Y0072429D01*
X0026500Y0072378D01*
X0026648Y0072322D01*
X0026794Y0072263D01*
X0026939Y0072200D01*
X0027082Y0072133D01*
X0027223Y0072063D01*
X0027362Y0071990D01*
X0027500Y0071913D01*
X0027636Y0071832D01*
X0027769Y0071748D01*
X0027900Y0071661D01*
X0028029Y0071570D01*
X0028156Y0071476D01*
X0028281Y0071379D01*
X0028402Y0071279D01*
X0028522Y0071176D01*
X0028638Y0071070D01*
X0028752Y0070961D01*
X0028864Y0070849D01*
X0028972Y0070735D01*
X0029077Y0070617D01*
X0029180Y0070497D01*
X0029279Y0070375D01*
X0029375Y0070250D01*
X0029468Y0070122D01*
X0029558Y0069993D01*
X0029644Y0069861D01*
X0029728Y0069727D01*
X0029807Y0069591D01*
X0029884Y0069453D01*
X0029956Y0069313D01*
X0030025Y0069171D01*
X0030091Y0069028D01*
X0030153Y0068883D01*
X0030211Y0068736D01*
X0030266Y0068588D01*
X0030317Y0068439D01*
X0030364Y0068288D01*
X0030407Y0068137D01*
X0030446Y0067984D01*
X0030482Y0067830D01*
X0030513Y0067676D01*
X0030541Y0067521D01*
X0030565Y0067365D01*
X0030585Y0067208D01*
X0030601Y0067051D01*
X0030613Y0066894D01*
X0030621Y0066737D01*
X0030625Y0066579D01*
X0030625Y0066421D01*
X0030621Y0066263D01*
X0030613Y0066106D01*
X0030601Y0065949D01*
X0030585Y0065792D01*
X0030565Y0065635D01*
X0030541Y0065479D01*
X0030513Y0065324D01*
X0030482Y0065170D01*
X0030446Y0065016D01*
X0030407Y0064863D01*
X0030364Y0064712D01*
X0030317Y0064561D01*
X0030266Y0064412D01*
X0030211Y0064264D01*
X0030153Y0064117D01*
X0030091Y0063972D01*
X0030025Y0063829D01*
X0029956Y0063687D01*
X0029884Y0063547D01*
X0029807Y0063409D01*
X0029728Y0063273D01*
X0029644Y0063139D01*
X0029558Y0063007D01*
X0029468Y0062878D01*
X0029375Y0062750D01*
X0029279Y0062625D01*
X0029180Y0062503D01*
X0029077Y0062383D01*
X0028972Y0062265D01*
X0028864Y0062151D01*
X0028752Y0062039D01*
X0028638Y0061930D01*
X0028522Y0061824D01*
X0028402Y0061721D01*
X0028281Y0061621D01*
X0028156Y0061524D01*
X0028029Y0061430D01*
X0027900Y0061339D01*
X0027769Y0061252D01*
X0027636Y0061168D01*
X0027500Y0061087D01*
X0027362Y0061010D01*
X0027223Y0060937D01*
X0027082Y0060867D01*
X0026939Y0060800D01*
X0026794Y0060737D01*
X0026648Y0060678D01*
X0026500Y0060622D01*
X0026351Y0060571D01*
X0026201Y0060523D01*
X0026050Y0060479D01*
X0025897Y0060438D01*
X0025744Y0060402D01*
X0025589Y0060369D01*
X0025434Y0060340D01*
X0025279Y0060316D01*
X0025122Y0060295D01*
X0024966Y0060278D01*
X0024808Y0060265D01*
X0024651Y0060256D01*
X0024493Y0060251D01*
X0024336Y0060250D01*
X0024178Y0060253D01*
X0024020Y0060260D01*
X0023863Y0060271D01*
X0023706Y0060286D01*
X0023549Y0060305D01*
X0023393Y0060328D01*
X0023238Y0060354D01*
X0023083Y0060385D01*
X0022929Y0060419D01*
X0022776Y0060458D01*
X0022624Y0060500D01*
X0022474Y0060546D01*
X0022324Y0060596D01*
X0022176Y0060650D01*
X0022029Y0060707D01*
X0021883Y0060768D01*
X0021740Y0060833D01*
X0021597Y0060901D01*
X0021457Y0060973D01*
X0021319Y0061048D01*
X0021182Y0061127D01*
X0021047Y0061209D01*
X0020915Y0061295D01*
X0020785Y0061384D01*
X0020657Y0061476D01*
X0020531Y0061572D01*
X0020408Y0061670D01*
X0020288Y0061772D01*
X0020170Y0061877D01*
X0020054Y0061984D01*
X0019942Y0062095D01*
X0019832Y0062208D01*
X0019725Y0062324D01*
X0019621Y0062442D01*
X0019520Y0062564D01*
X0019423Y0062687D01*
X0019328Y0062814D01*
X0019237Y0062942D01*
X0019148Y0063073D01*
X0019064Y0063206D01*
X0018982Y0063341D01*
X0018904Y0063478D01*
X0018830Y0063617D01*
X0018759Y0063758D01*
X0018691Y0063900D01*
X0018628Y0064045D01*
X0018567Y0064190D01*
X0018511Y0064338D01*
X0018458Y0064486D01*
X0018409Y0064636D01*
X0018364Y0064787D01*
X0018323Y0064940D01*
X0018285Y0065093D01*
X0018252Y0065247D01*
X0018222Y0065402D01*
X0018196Y0065557D01*
X0018175Y0065714D01*
X0018157Y0065870D01*
X0018143Y0066027D01*
X0018133Y0066185D01*
X0018127Y0066342D01*
X0018125Y0066500D01*
D11*
X0021028Y0036500D03*
X0027721Y0036500D03*
M02*
